<?xml version="1.0" encoding="UTF-8" standalone="no"?>
<!DOCTYPE svg PUBLIC "-//W3C//DTD SVG 1.1//EN" "http://www.w3.org/Graphics/SVG/1.1/DTD/svg11.dtd">
<svg width="100%" height="100%" viewBox="0 0 352 121" version="1.1" xmlns="http://www.w3.org/2000/svg" xmlns:xlink="http://www.w3.org/1999/xlink" xml:space="preserve" xmlns:serif="http://www.serif.com/" style="fill-rule:evenodd;clip-rule:evenodd;stroke-linejoin:round;stroke-miterlimit:2;">
    <g transform="matrix(0.459547,0,0,0.459547,175.012,61.0267)">
        <g id="Jetro.eps" transform="matrix(1,0,0,1,-402.083,-402.083)">
            <g transform="matrix(4.16667,0,0,4.16667,0,0)">
                <path d="M105.052,72.561L78.447,72.561L76.306,81.954L78.278,81.954L78.868,79.37C78.868,79.37 79.778,75.213 83.697,75.213L88.63,75.213L88.63,107.516C88.63,111.257 86.074,111.412 85.721,111.417L81.278,111.417L81.278,113.577L102.218,113.577L102.218,111.417L97.776,111.417C97.423,111.412 94.867,111.256 94.867,107.516L94.867,75.213L99.8,75.213C103.72,75.213 104.63,79.37 104.63,79.37L105.218,81.954L107.19,81.954L105.052,72.561Z" style="fill:rgb(199,40,47);"/>
                <path d="M84.69,105.696L83.613,104.344C83.613,104.344 76.127,110.606 67.986,110.606L55.761,110.606L55.761,93.232L62.982,93.232C66.723,93.232 66.88,95.788 66.884,96.14L66.884,99.071L69.046,99.071L69.044,84.743L66.884,84.743L66.884,87.673C66.878,88.023 66.723,90.58 62.982,90.58L55.761,90.58L55.761,75.213L65.612,75.213C69.532,75.213 70.074,79.37 70.074,79.37L70.663,81.954L72.635,81.954L70.861,72.561L42.111,72.561L42.111,74.724L46.616,74.724C46.967,74.727 49.523,74.881 49.523,78.622L49.523,107.139C49.523,110.878 46.152,111.412 45.8,111.417L32.579,111.417C35.45,105.934 35.96,100.7 35.96,98.89L35.96,73.271C35.96,69.286 40.197,69.129 40.549,69.125L44.094,69.125L44.094,66.478L21.218,66.48L21.218,69.125L24.765,69.125C25.118,69.131 29.355,69.286 29.355,73.273L29.355,97.594C29.355,117.584 14.446,123.526 8.503,125.148L8.503,126.767C20.704,125.214 27.526,119.493 31.323,113.577L74.799,113.577L84.69,105.696Z" style="fill:rgb(199,40,47);"/>
                <path d="M184.251,92.908C184.251,81.865 175.221,72.912 164.08,72.912C152.941,72.912 143.909,81.865 143.909,92.908C143.909,103.95 152.941,112.904 164.08,112.904C165.095,112.904 166.09,112.827 167.062,112.683C165.87,114.085 163.269,116.271 158.642,116.271C151.186,116.271 144.865,110.56 142.922,108.669C141.653,107.438 130.592,96.177 128.162,93.702L128.495,93.702C133.034,93.702 138.708,90.516 138.708,83.222C138.708,74.902 131.629,72.561 128.063,72.561L108.364,72.561L108.364,74.724L110.871,74.724C111.222,74.727 113.779,74.881 113.779,78.623L113.779,107.516C113.779,111.257 111.222,111.412 110.871,111.417L106.429,111.417L106.429,113.577L127.368,113.577L127.368,111.417L122.924,111.417C122.573,111.412 120.017,111.256 120.017,107.516L120.017,93.702L120.514,93.702L138.058,110.56C138.058,110.56 145.405,118.124 157.67,118.124C166.957,118.124 171.27,113.284 172.819,110.934C179.584,107.707 184.251,100.847 184.251,92.908ZM120.017,91.164L120.017,75.213L124.876,75.213C124.876,75.213 132.601,75.443 132.601,83.222C132.601,90.408 125.524,91.164 124.713,91.164L120.017,91.164ZM166.059,110.168C158.066,111.086 150.7,104.099 149.608,94.565C148.517,85.035 154.11,76.562 162.104,75.647C170.096,74.73 177.461,81.716 178.553,91.249C179.647,100.782 174.052,109.253 166.059,110.168Z" style="fill:rgb(199,40,47);"/>
            </g>
        </g>
        <g id="Jetro.eps1" serif:id="Jetro.eps">
        </g>
    </g>
</svg>
