<?xml version="1.0" encoding="UTF-8"?>
<svg id="Layer_1" data-name="Layer 1" xmlns="http://www.w3.org/2000/svg" viewBox="0 0 2392.41 714">
  <defs>
    <style>
      .cls-1 {
        fill: #b52021;
      }

      .cls-2 {
        fill: #fff;
      }

      .cls-3 {
        fill: #fcbc7f;
      }
    </style>
  </defs>
  <g>
    <path class="cls-3" d="M118.77,5.8l.98,702.38c0,3.21-2.6,5.82-5.81,5.82H5.81c-3.21,0-5.81-2.6-5.81-5.81V5.81C0,2.6,2.6,0,5.81,0h107.15c3.2,0,5.8,2.6,5.81,5.8Z"/>
    <g>
      <path class="cls-1" d="M321.36,0c2.86,0,10.47.19,18.48,1.92,77.81,16.84,145.93,84.97,158.11,163.47.86,5.56,1.06,16.56,1.06,18.36v52.62c0,2.38-1.93,4.3-4.3,4.3h-128.72c-2.51,0-4.47-2.13-4.28-4.63,2.8-37.45-10.65-73.04-39.33-97.74-17.35-14.94-40.99-25.44-61.4-25.44h-90c-2.38,0-4.3-1.93-4.3-4.31V4.3c0-2.38,1.93-4.3,4.31-4.3h150.39Z"/>
      <path class="cls-3" d="M483.38,280.61h-132.26c-1.47,0-2.86.65-3.8,1.77-43.77,52.26-88.52,103.81-131.72,156.53-1.81,2.2-11.16,13.4-15.09,18.86-1.16,1.61-1.23,3.75-.21,5.45,50.14,82.92,100.07,166.03,151.04,248.42.91,1.46,2.51,2.36,4.23,2.36h133.51c3.89,0,6.27-4.28,4.22-7.59l-150.83-242.64c-1.14-1.84-.96-4.2.44-5.84l144.26-169.13c2.75-3.22.46-8.19-3.78-8.19Z"/>
    </g>
  </g>
  <g>
    <path class="cls-2" d="M649.1,30.75h28.67v71.3c10.63-11.91,44.98-48.11,66.17-71.3h35.04l-63.57,64.54,66.18,89.96h-34.86l-51.47-71.18-17.49,16.37v54.81h-28.67V30.75Z"/>
    <path class="cls-2" d="M932.18,107.35c0,42.83-25.14,80.13-74.8,80.13s-72.83-35.21-72.83-79.49,27.3-79.49,74.87-79.49c44.62,0,72.77,32.01,72.77,78.84ZM814.58,107.33c0,31.27,14.56,56.3,43.95,56.3,31.82,0,43.63-26.49,43.63-55.9s-13.42-55.36-43.97-55.36-43.61,23.89-43.61,54.96Z"/>
    <path class="cls-2" d="M989.8,30.75v92.37c0,32,16.88,41.16,34.61,41.16,20.5,0,33.98-10.48,33.98-41.16V30.75h29.04v90.92c0,51.9-29.83,65.68-63.48,65.68s-63.28-14.56-63.28-64.77V30.75h29.11Z"/>
    <path class="cls-2" d="M1124.48,30.75h59.19c44.46,0,73.86,29.62,73.86,75.44s-28.57,79.06-75.02,79.06h-58.03V30.75ZM1153.46,161.55h27.58c31.93,0,46.47-23.4,46.47-55.16,0-27.04-13.46-51.94-46.31-51.94h-27.73v107.1Z"/>
    <path class="cls-2" d="M1427.44,107.35c0,42.83-25.14,80.13-74.8,80.13s-72.83-35.21-72.83-79.49,27.3-79.49,74.87-79.49c44.62,0,72.77,32.01,72.77,78.84ZM1309.84,107.33c0,31.27,14.56,56.3,43.95,56.3,31.82,0,43.63-26.49,43.63-55.9s-13.42-55.36-43.97-55.36-43.61,23.89-43.61,54.96Z"/>
    <path class="cls-2" d="M1485.06,30.75v92.37c0,32,16.88,41.16,34.61,41.16,20.5,0,33.98-10.48,33.98-41.16V30.75h29.04v90.92c0,51.9-29.83,65.68-63.48,65.68s-63.28-14.56-63.28-64.77V30.75h29.11Z"/>
    <path class="cls-2" d="M1635.25,140.75c3.75,16.55,15.41,24.45,34.84,24.45s28.27-8.5,28.27-20.94c0-13.58-7.51-20.14-35.49-26.75-40.11-9.52-51.28-23.84-51.28-45,0-25.56,19.04-43.99,54.9-43.99,39.57,0,55.5,21.78,57.67,43.59h-29.27c-2.01-10.96-8.41-21.61-29.23-21.61-15.36,0-24.36,6.58-24.36,18.84s7.3,16.86,32.99,22.91c44.64,10.63,53.78,27.5,53.78,48.62,0,27.08-20.36,46.5-60.15,46.5s-58.41-19.97-61.94-46.61h29.27Z"/>
    <path class="cls-2" d="M678.08,279.75v154.5h-28.98v-154.5h28.98Z"/>
    <path class="cls-2" d="M716.78,434.25v-154.5h36.51c20.28,35.18,60.24,102.64,67.88,119.47h.38c-1.65-17.4-1.59-43.38-1.59-68.69v-50.77h26.54v154.5h-34.54c-17.91-31.34-61.12-106.91-69.47-124.58h-.38c1.12,14.91,1.36,44.75,1.36,72.49v52.09h-26.7Z"/>
    <path class="cls-2" d="M917.57,303.76h-47.96v-24.01h124.87v24.01h-47.87v130.49h-29.05v-130.49Z"/>
    <path class="cls-2" d="M1118.78,365.7h-74.9v44.54h82.5l-3.51,24.01h-107.18v-154.5h106.49v24.01h-78.29v37.93h74.9v24.01Z"/>
    <path class="cls-2" d="M1180.15,370.28v63.97h-28.42v-154.5h65.32c33.02,0,50.74,18.1,50.74,42.05,0,20.51-11.37,32.06-23.78,36.48,9.35,3.01,20.7,11.48,20.7,38.85v7.29c0,10.48-.11,22.87,2.17,29.84h-27.64c-2.75-6.7-3.02-18.43-3.02-34.18v-2.61c0-18.64-4.93-27.17-30.8-27.17h-25.27ZM1180.15,346.9h29.92c20.12,0,28.31-7.61,28.31-22.06s-9.07-21.7-27-21.7h-31.24v43.76Z"/>
    <path class="cls-2" d="M1299.17,434.25v-154.5h36.51c20.28,35.18,60.24,102.64,67.88,119.47h.38c-1.65-17.4-1.59-43.38-1.59-68.69v-50.77h26.54v154.5h-34.54c-17.91-31.34-61.12-106.91-69.47-124.58h-.38c1.12,14.91,1.36,44.75,1.36,72.49v52.09h-26.7Z"/>
    <path class="cls-2" d="M1493.43,394.91l-13.62,39.34h-28.58l53.34-154.5h36.22l55.64,154.5h-30.57l-14.22-39.34h-58.23ZM1545.13,370.9c-12.26-35.35-19.63-56.44-23.22-69.6h-.22c-3.8,14.5-11.97,39.39-21.82,69.6h45.26Z"/>
    <path class="cls-2" d="M1631.76,303.76h-47.96v-24.01h124.87v24.01h-47.87v130.49h-29.05v-130.49Z"/>
    <path class="cls-2" d="M1758.85,279.75v154.5h-28.98v-154.5h28.98Z"/>
    <path class="cls-2" d="M1936.55,356.35c0,42.83-25.14,80.13-74.8,80.13s-72.83-35.21-72.83-79.49,27.3-79.49,74.87-79.49c44.62,0,72.77,32.01,72.77,78.84ZM1818.95,356.33c0,31.27,14.56,56.3,43.95,56.3,31.82,0,43.63-26.49,43.63-55.9s-13.42-55.36-43.97-55.36-43.61,23.89-43.61,54.96Z"/>
    <path class="cls-2" d="M1966.67,434.25v-154.5h36.51c20.28,35.18,60.24,102.64,67.88,119.47h.38c-1.65-17.4-1.59-43.38-1.59-68.69v-50.77h26.54v154.5h-34.54c-17.91-31.34-61.12-106.91-69.47-124.58h-.38c1.12,14.91,1.36,44.75,1.36,72.49v52.09h-26.7Z"/>
    <path class="cls-2" d="M2160.93,394.91l-13.62,39.34h-28.58l53.34-154.5h36.22l55.64,154.5h-30.57l-14.22-39.34h-58.23ZM2212.63,370.9c-12.26-35.35-19.63-56.44-23.22-69.6h-.22c-3.8,14.5-11.97,39.39-21.82,69.6h45.26Z"/>
    <path class="cls-2" d="M2285.23,279.75h28.98v130.49h78.2l-3.49,24.01h-103.7v-154.5Z"/>
    <path class="cls-2" d="M649.1,528.75h28.98v130.49h78.21l-3.49,24.01h-103.7v-154.5Z"/>
    <path class="cls-2" d="M812.3,643.91l-13.62,39.34h-28.58l53.34-154.5h36.22l55.64,154.5h-30.57l-14.22-39.34h-58.23ZM864.01,619.9c-12.26-35.35-19.63-56.44-23.22-69.6h-.22c-3.8,14.5-11.97,39.39-21.82,69.6h45.26Z"/>
    <path class="cls-2" d="M950.21,683.25l-40.05-154.5h30.83c13.63,64,23.69,106.6,25.85,123.83h.22c5.25-25.48,22.33-85.79,31.71-123.83h26.56c8.4,31.31,25.9,97.6,30.39,122.51h.22c5.07-31.52,22.44-95.85,28.93-122.51h28.26l-42.95,154.5h-30.3c-8.55-34.67-24.29-92.73-29.16-116.47h-.22c-5.27,25.97-21.26,83.86-30.08,116.47h-30.23Z"/>
    <path class="cls-2" d="M1330.94,605.35c0,42.83-25.14,80.13-74.8,80.13s-72.83-35.21-72.83-79.49,27.3-79.48,74.87-79.48c44.62,0,72.77,32.01,72.77,78.84ZM1213.33,605.33c0,31.27,14.56,56.3,43.95,56.3,31.82,0,43.63-26.49,43.63-55.9s-13.42-55.36-43.97-55.36-43.61,23.89-43.61,54.96Z"/>
    <path class="cls-2" d="M1361.06,528.75h104.9v24.01h-76.55v42.06h71.73v24.01h-71.73v64.41h-28.35v-154.5Z"/>
    <path class="cls-2" d="M1491.29,528.75h104.9v24.01h-76.55v42.06h71.73v24.01h-71.73v64.41h-28.35v-154.5Z"/>
    <path class="cls-2" d="M1650.51,528.75v154.5h-28.98v-154.5h28.98Z"/>
    <path class="cls-2" d="M1816.68,636.93c-6.43,27.93-27.41,48.42-64.86,48.42-48.04,0-71.25-34.8-71.25-78.66s23.7-80.18,72.57-80.18c39.53,0,59.41,22.99,63.45,48.82h-28.98c-4.02-13.59-13.28-25.75-35.46-25.75-29.79,0-41.55,26.91-41.55,56.1,0,27.56,10.6,56.59,42.45,56.59,22.49,0,30.59-14.28,34.5-25.35h29.13Z"/>
    <path class="cls-2" d="M1946.9,614.7h-74.9v44.54h82.5l-3.51,24.01h-107.18v-154.5h106.49v24.01h-78.29v37.93h74.9v24.01Z"/>
  </g>
</svg>