<?xml version="1.0"?>
<svg xmlns="http://www.w3.org/2000/svg" width="190" height="32" viewBox="0 0 50 8.3">
  <path fill="#ffffff"
    d="M40.32.32V3.4h4.12V.32h2.04v7.7h-2.04V4.63h-4.12v3.39H38.3V.32zm-19.34 0v1.31h-3.12v6.39h-2.03V1.63H12.7V.33h8.27m3.09 1.3-1.42 3.5h2.84zm4.84 6.39h-2.27l-.66-1.66h-3.82l-.67 1.66h-2.27l3.6-7.7h2.5zm19.2 0h2.04V.32H48.1zM2.17.32V3.4H6.3V.32h2.04v7.7H6.29V4.63H2.17v3.39H.13V.32zm7.77 7.7h2.04V.32H9.94zm18.89-2.13a4.97 4.97 0 0 1-.27-1.64c0-.81.14-1.6.52-2.25A3.42 3.42 0 0 1 30.84.54a6.38 6.38 0 0 1 4.83.13 2.5 2.5 0 0 1 1.45 1.78c.04.16.06.33.07.49h-2.14a1.48 1.48 0 0 0-1.07-1.48 2.95 2.95 0 0 0-1.9.04c-.51.18-.92.6-1.1 1.13a4.8 4.8 0 0 0-.1 2.97c.16.56.59 1 1.12 1.21a3.13 3.13 0 0 0 2.04.06c.4-.13.72-.42.9-.8.1-.25.16-.53.16-.83h2.14c-.01.26-.05.5-.1.74-.19.76-.72 1.4-1.42 1.7a6.77 6.77 0 0 1-4.7.2 3.35 3.35 0 0 1-2.19-2" />
</svg>